<?xml version="1.0" encoding="UTF-8"?>
<svg width="175.1268" height="175.1268" viewBox="0 0 175.1268 175.1268" xmlns="http://www.w3.org/2000/svg">
	<defs>
		<linearGradient id="pinkCandyInner" gradientUnits="userSpaceOnUse" x1="10.613623" y1="70.885506" x2="42.833115" y2="70.885506">
			<stop style="stop-color:#ffb2c7" offset="0"/>
			<stop style="stop-color:#ff729b" offset="1"/>
		</linearGradient>
		<linearGradient id="pinkCandyLeft" gradientUnits="userSpaceOnUse" x1="22.222298" y1="68.132492" x2="71.271004" y2="73.196747">
			<stop style="stop-color:#fa678f" offset="0"/>
			<stop style="stop-color:#f33b68" offset="1"/>
		</linearGradient>
		<radialGradient id="pinkCandyCenter" gradientUnits="userSpaceOnUse"  cx="79.414978" cy="37.504673" fx="79.414978" fy="37.504673"
		  r="34.026192" gradientTransform="matrix(1.1186802,-0.85177571,0.73441672,0.96454669,-42.545668,78.273404)">
			<stop style="stop-color:#ff5882" offset="0"/>
			<stop style="stop-color:#e41d4e" offset="1"/>
		</radialGradient>
		<linearGradient id="pinkCandyShine" gradientUnits="userSpaceOnUse" spreadMethod="reflect" x1="88.089714" y1="37.542938" 
		  x2="114.01572" y2="25.967249">
			<stop style="stop-color:#fff" offset="0"/>
			<stop style="stop-color:#fff;stop-opacity:0.63" offset="1"/>
		</linearGradient>
		<linearGradient id="pinkCandyRight" gradientUnits="userSpaceOnUse" x1="115.87105" y1="38.611412" x2="166.0903" y2="38.611412">
			<stop style="stop-color:#f93e6b" offset="0"/>
			<stop style="stop-color:#d3244d" offset="1"/>
		</linearGradient>
		<linearGradient id="blueCandyInner" gradientUnits="userSpaceOnUse" x1="115.46906" y1="121.90811" x2="158.59712" y2="141.45848">
			<stop style="stop-color:#8fcfff" offset="0"/>
			<stop style="stop-color:#4fb0ff" offset="1"/>
		</linearGradient>
		<linearGradient id="blueCandyLeft" gradientUnits="userSpaceOnUse" x1="16.676754" y1="84.075638" x2="74.229248" y2="106.45258">
			<stop style="stop-color:#6dbeff" offset="0"/>
			<stop style="stop-color:#008cfa" offset="1"/>
		</linearGradient>
		<radialGradient id="blueCandyCenter" gradientUnits="userSpaceOnUse" cx="90.214996" cy="103.70571" fx="90.214996" fy="103.70571"
		  r="34.167248" gradientTransform="matrix(0.98354876,-0.76618432,0.76907657,0.98726155,-94.734455,67.34679)">
			<stop style="stop-color:#6dbeff" offset="0"/>
			<stop style="stop-color:#219dff" offset="0.75"/>
			<stop style="stop-color:#008fea" offset="1"/>
		</radialGradient>
		<linearGradient id="blueCandyShine" gradientUnits="userSpaceOnUse" spreadMethod="reflect" x1="73.224373" y1="91.764"
		  x2="102.86221" y2="67.973778">
			<stop style="stop-color:#fff" offset="0"/>
			<stop style="stop-color:#fff;stop-opacity:0.63" offset="1"/>
		</linearGradient>
		<linearGradient id="blueCandyRight" gradientUnits="userSpaceOnUse" x1="153.8112" y1="145.0334" x2="200.34163" y2="165.58485">
			<stop style="stop-color:#1993f0" offset="0"/>
			<stop style="stop-color:#0a91ff" offset="1"/>
		</linearGradient>
	</defs>
	<g title="Pink candy" style="stroke:#8a0021;stroke-width:1.1;stroke-linecap:round;stroke-linejoin:round;stroke-dasharray:none;stroke-opacity:0.78">
		<path d="m 19.121,57.784 -1.3,9 q -0.1,1.95 -5.75,5 -3.3,5.95 5.35,16.4 l 22.45,-10.95 q 2.8,-4.8 2.35,-9.15 l -5.6,2.45 5.6,-2.45 q -0.15,-1.45 -0.65,-2.85 -10.15,-18.65 -22.45,-7.45 z"
		  style="fill:url(#pinkCandyInner)"/>
		<path d="m 156.721,40.234 c -0.26667,0.8 -0.78333,2.1 -1.55,3.9 -0.8,1.8 -1.05,3.316667 -0.75,4.55 0.33333,1.3 1.56667,2.733333 3.7,4.3 2.2,1.633333 3.51667,3.033333 3.95,4.2 0.3,0.9 0.31667,1.866667 0.05,2.9 -0.23333,0.966667 -0.66667,1.866667 -1.3,2.7 -0.73333,0.866667 -1.7,1.65 -2.9,2.35 0.13333,-0.03333 0.26667,-0.05 0.4,-0.05 10.13333,-0.533333 9.6,-8.816667 -1.6,-24.85 m -3.9,-20.45 c -0.76667,-1.1 -1.53333,-2.3 -2.3,-3.6 -0.76667,-1.3 -2.2,-2.583333 -4.3,-3.85 -2.1,-1.3 -4.03333,-1.8 -5.8,-1.5 -1.76667,0.3 -3.18333,1.133333 -4.25,2.5 -1.1,1.333333 -3.16667,4.433333 -6.2,9.3 -1.9,3 -4,5.433333 -6.3,7.3 -2.33333,1.866667 -4.75,3.066667 -7.25,3.6 4.6,4.933333 7.16667,10.8 7.7,17.6 4.8,0.8 8.2,1.7 10.2,2.7 2,0.966667 3.86667,2.633333 5.6,5 1.73333,2.366667 3.06667,3.766667 4,4.2 0.93333,0.433333 2.56667,1.2 4.9,2.3 2.3,1.066667 4.23333,1.383333 5.8,0.95 1.56667,-0.466667 2.66667,-0.85 3.3,-1.15 1.2,-0.7 2.16667,-1.483333 2.9,-2.35 0.63333,-0.833333 1.06667,-1.733333 1.3,-2.7 0.26667,-1.033333 0.25,-2 -0.05,-2.9 -0.43333,-1.166667 -1.75,-2.566667 -3.95,-4.2 -2.13333,-1.566667 -3.36667,-3 -3.7,-4.3 -0.3,-1.233333 -0.05,-2.75 0.75,-4.55 0.76667,-1.8 1.28333,-3.1 1.55,-3.9 0.1,-0.3 0.16667,-0.533333 0.2,-0.7 0.23333,-1.4 0.05,-2.8 -0.55,-4.2 -0.6,-1.366667 -1.5,-2.466667 -2.7,-3.3 -1.33333,-0.8 -2.16667,-1.383333 -2.5,-1.75 -0.36667,-0.5 -0.56667,-1.1 -0.6,-1.8 l 2.75,-2.7 c 0.4,-0.433333 0.6,-1.066667 0.6,-1.9 0,-1.633333 -0.36667,-3 -1.1,-4.1 z"
		  style="fill:url(#pinkCandyRight)"/>
		<g title="Pink candy center">
			<path d="m 116.421,33.534 c -3.26667,-3.5 -7.53333,-6.516667 -12.8,-9.05 -13.66667,-4.533333 -25.95,-2.183333 -36.85,7.05 -8.26667,8.766667 -11.21667,17.183333 -8.85,25.25 3.03294,8.795214 4.70512,12.417263 9.1,17.2 11.56667,11.1 24.18333,13.3 37.85,6.6 13.63333,-6.733333 20.05,-16.55 19.25,-29.45 -0.53333,-6.8 -3.1,-12.666667 -7.7,-17.6"
			  style="fill:url(#pinkCandyCenter)"/>
			<path d="m 98.121,36.184 q 0,2.2 0.95,3.5 1.05,1.4 3.05,1.4 1.55,0 2.5,-0.65 1.05,-0.75 1.05,-2 0,-2.25 -1.7,-3.75 -1.5,-1.4 -3.25,-1.4 -0.5,0 -1.3,0 -0.8,0 -1.3,2.8 m -9.75,-5.3 q -2.75,-2.25 -5.25,-2.25 -2,0 -8.15,5.25 -6.2,5.2 -6.1,7.7 0.1,2.5 2.95,4.7 2.8,2.2 5.55,2.2 1.6,0 3.05,-1.55 0.65,-0.7 4.25,-6.95 0.5,-1.15 1.55,-0.6 1.05,0.5 1.45,0.5 2.1,0 2.9,-1.05 0.65,-0.9 0.65,-3.15 0,-2.45 -2.85,-4.8 z"
			  style="fill:url(#pinkCandyShine);stroke-width:0.7"/>
		</g>
		<path d="m 65.371,57.534 c -3.2,0 -5.683333,-0.25 -7.45,-0.75 -0.866667,-0.233333 -1.566667,-0.516667 -2.1,-0.85 -18.266667,-7.133333 -30.5,-6.516667 -36.7,1.85 8.2,-7.466667 15.683333,-4.983333 22.45,7.45 0.333333,0.933333 0.55,1.883333 0.65,2.85 0.3,2.9 -0.483333,5.95 -2.35,9.15 l 13.05,18.15 14.1,-21.4 3.7,-5.65"
		  style="fill:url(#pinkCandyLeft)"/>
	</g>
	<g title="Blue candy" style="stroke:#00437a;stroke-width:1.1;stroke-linecap:round;stroke-linejoin:round;stroke-dasharray:none;stroke-opacity:0.78">
		<path d="m 32.17096,69.284 c -1.266667,-0.1 -2.65,0.08333 -4.15,0.55 -0.933333,0.333333 -2.216667,0.9 -3.85,1.7 -2.033333,1 -3.5,1.85 -4.4,2.55 -1.466667,1.1 -2.45,2.333333 -2.95,3.7 -0.333333,0.966667 -0.483333,2.266667 -0.45,3.9 0.06667,2.2 0.08333,3.533333 0.05,4 -0.2,1.6 -0.933333,3.666667 -2.2,6.2 -1.533333,2.933333 -2.466667,4.983333 -2.8,6.15 -1.066667,3.5 -0.866667,7.18333 0.6,11.05 1.333333,3.63333 3.516667,6.78333 6.55,9.45 3.2,2.76667 6.316667,4.15 9.35,4.15 2.1,-0.0667 4.25,-0.85 6.45,-2.35 1.233333,-0.83333 3.083333,-2.38333 5.55,-4.65 2.166667,-2 4.1,-3.45 5.8,-4.35 1.333333,-0.7 2.633333,-1.15 3.9,-1.35 1.046556,-11.785756 10.180919,-16.766752 10.180919,-16.766752 0,0 -3.751429,-2.230255 -9.080919,-5.483248 -2.766667,-2.033333 -5.233333,-4.683333 -7.4,-7.95 -2.4,-3.6 -3.966667,-5.816667 -4.7,-6.65 -2.033333,-2.3 -4.183333,-3.583333 -6.45,-3.85 m 10.7,32.75 c 2.1,0.0333 3.833333,0.11667 5.2,0.25 -1.366667,-0.13333 -3.1,-0.21667 -5.2,-0.25 -2.1,-0.0333 -3.5,-0.0333 -4.2,0 0.7,-0.0333 2.1,-0.0333 4.2,0 z"
		  style="fill:url(#blueCandyLeft);"/>
		<g title="Blue candy center">
			<path d="m 49.621,109.984 c -0.233333,2.66667 -0.05,5.35 0.55,8.05 4.266667,12.93333 14.033333,20.5 29.3,22.7 11.166667,0.46667 20.11667,-2.48333 26.85,-8.85 5.61837,-5.30052 6.17957,-8.74305 9.14996,-17.7 2.43333,-8.7 -0.0833,-16.7 -7.55,-24 -5.16667,-5 -11.41667,-8.183333 -18.75,-9.55 -7.433333,-1.366667 -14.35,-0.566667 -20.75,2.4 -4.233333,1.933333 -7.833333,4.65 -10.8,8.15 -1.633333,1.9 -3.066667,4.016667 -4.29998,6.35 -2.19998,4.13333 -3.433313,8.28333 -3.69998,12.45 z"
			  style="fill:url(#blueCandyCenter);"/>
			<path d="m 85.771,88.134 q -1,-1.85 -3.1,-2.1 -1.9,-0.3 -3.35,0.65 -0.4,0.3 -1.05,0.85 -0.6,0.5 0.25,3.05 1,1.8 2.5,2.35 1.45,0.55 3.05,-0.55 1.3,-0.9 1.85,-2 0.5,-1.2 -0.15,-2.25 m -27.35,13.65 q -2.6,7.8 -1.45,9.8 1.25,2 4.65,2.2 3.3,0.25 5.55,-1.3 1.35,-0.9 1.85,-3.05 0.15,-0.9 0.25,-8.1 -0.15,-1.2 0.95,-1.35 1.15,-0.2 1.45,-0.45 1.75,-1.2 1.9,-2.5 0.15,-1.1 -0.9,-2.95 -1.2,-2.05 -4.65,-2.35 -3.3,-0.35 -5.35,1.1 -1.65,1.1 -4.25,8.95 z"
			  style="fill:url(#blueCandyShine);stroke-width:0.7"/>
		</g>
		<path d="m 151.76744,151.27948 c 0.5,1.3 0.96667,2.83333 1.4,4.6 0.26667,1.06667 0.51667,2.23333 0.75,3.5 0.36667,1.83333 0.9,4.6 1.6,8.3 1.56667,6.86667 4.06667,11.78333 7.5,14.75 1.00507,0.86351 3.33872,2.56618 5.86741,2.41166 3.4257,-0.20933 7.20935,-2.64664 8.53259,-4.16166 5.13334,-5.46667 7.88334,-10.33333 8.25,-14.6 0.33334,-4.3 -0.31666,-7.71667 -1.95,-10.25 -1.63333,-2.53333 -3.9,-4.83333 -6.8,-6.9 0.8,-3.3 3.18334,-6.6 7.15,-9.9 3.46667,-2.9 6.66667,-4.4 9.6,-4.5 -0.63333,-1.16667 -2.83333,-1.78333 -6.6,-1.85 -7.06666,-0.16667 -12.63333,0.58333 -16.7,2.25 -3.5,1.43333 -6.18333,2.51667 -8.49167,3.39167 -2.30833,0.875 -4.40833,1.09166 -6.70833,0.85833 m 4.05,15.35 7.7,6.15 -7.7,-6.15"
		  transform="translate(-46.821524,-23.966849)" style="fill:url(#blueCandyRight);"/>
		<path d="m 153.921,115.184 q -0.95,-1.85 -4.55,-3.45 -1.45,-0.65 -2.55,-1.2 -4.4,0.15 -9.6,4.5 -5.95,4.95 -7.15,9.9 4.35,3.1 6.8,6.9 2.45,3.8 1.95,10.25 -0.55,6.4 -8.25,14.6 -3.45,3.95 -6.65,4.35 l -0.6,0.1 q 0,0.45 0.2,0.95 0.6,1.6 2.05,2.1 1.95,0.65 5.75,-1 20.8,-9.3 28.5,-23.65 1.6,-2.9 1.75,-5.75 0.15,-3.35 -2,-5 -0.45,-0.35 -1.75,-1.05 -1.2,-0.65 -1.75,-1.2 -1.55,-1.5 -1.45,-5.4 0.15,-4.4 -0.7,-5.95 z"
		  style="fill:url(#blueCandyInner);"/>
	</g>
</svg>
