<?xml version="1.0" encoding="UTF-8"?>
<svg width="745.79999" height="175.1268" viewBox="0 0 745.80001 175.1268" xmlns="http://www.w3.org/2000/svg">
	<defs>
		<linearGradient id="textBorder" gradientUnits="userSpaceOnUse" x1="121.29104" y1="34.051918" x2="121.29104" y2="138.64951">
			<stop style="stop-color:#b30f39" offset="0"/>
			<stop style="stop-color:#1899f9" offset="1"/>
		</linearGradient>
	</defs>
	<g aria-label="Wrapper" transform="translate(0,1.1032854)" style="fill:#fff;stroke:url(#textBorder);stroke-width:2.4">
		<path d="m 258.8559,73.934 h 11.31533 c 0.89627,-4.257253 -0.37344,-9.598774 -3.80912,-12.138189 -3.43568,-2.539415 -7.917,-3.809122 -13.44396,-3.809122 -18.74685,0 -30.36094,10.680479 -34.84226,32.041437 l -6.83402,31.817374 h 12.43567 l 6.38588,-29.912813 c 1.19501,-5.60165 2.87551,-10.269692 5.04148,-14.004125 2.16597,-3.809122 4.55601,-6.535258 7.17011,-8.178409 2.61411,-1.64315 5.48962,-2.464725 8.62654,-2.464725 2.76349,0 4.81743,0.52282 6.16182,1.568461 1.41909,0.970953 2.0166,3.959781 1.79253,5.080111 z"/>
		<path d="m 337.28522,137.30605 5.26555,-24.87132 q 1.6805,4.36928 6.04979,6.94604 4.36928,2.46473 9.8589,2.46473 3.58506,0 7.17011,-0.78423 3.58506,-0.78423 7.61825,-2.91286 4.14522,-2.24066 7.50621,-5.71368 3.47302,-3.47303 6.38588,-9.18671 3.02489,-5.825716 4.59335,-13.331927 1.12033,-6.385881 1.23236,-11.2033 0.11204,-4.929452 -1.34439,-8.402475 -1.45643,-3.585055 -3.47303,-5.937748 -2.01659,-2.352693 -5.04148,-3.697089 -3.02489,-1.456429 -6.04978,-2.016594 -3.02489,-0.672198 -6.60995,-0.672198 -4.25725,0 -8.17841,0.896264 -3.92115,0.784231 -8.17841,3.024891 -4.14522,2.24066 -7.61824,5.713683 -3.47302,3.473022 -6.38588,9.186705 -2.80083,5.713683 -4.36929,13.107861 l -10.08297,47.389957 z m 11.09127,-30.58501 q -3.36099,-5.82571 -1.0083,-16.804947 2.3527,-10.979234 8.17841,-16.80495 5.82572,-5.825715 12.99583,-5.825715 7.17011,0 10.5311,5.825715 3.36099,5.825716 1.0083,16.80495 -2.35269,10.979237 -8.29044,16.804947 -5.82572,5.71369 -12.8838,5.71369 -7.17011,0 -10.5311,-5.71369 z"/>
		<path d="m 403.33169,137.30605 5.26555,-24.87132 q 1.68049,4.36928 6.04978,6.94604 4.36929,2.46473 9.8589,2.46473 3.58506,0 7.17011,-0.78423 3.58506,-0.78423 7.61825,-2.91286 4.14522,-2.24066 7.50621,-5.71368 3.47302,-3.47303 6.38588,-9.18671 3.02489,-5.825716 4.59335,-13.331927 1.12033,-6.385881 1.23237,-11.2033 0.11203,-4.929452 -1.3444,-8.402475 -1.45643,-3.585055 -3.47302,-5.937748 -2.0166,-2.352693 -5.04149,-3.697089 -3.02489,-1.456429 -6.04978,-2.016594 -3.02489,-0.672198 -6.60995,-0.672198 -4.25725,0 -8.17841,0.896264 -3.92115,0.784231 -8.1784,3.024891 -4.14523,2.24066 -7.61825,5.713683 -3.47302,3.473022 -6.38588,9.186705 -2.80082,5.713683 -4.36929,13.107861 l -10.08297,47.389957 z m 11.09126,-30.58501 q -3.36099,-5.82571 -1.00829,-16.804947 2.35269,-10.979234 8.1784,-16.80495 5.82572,-5.825715 12.99583,-5.825715 7.17011,0 10.5311,5.825715 3.36099,5.825716 1.0083,16.80495 -2.35269,10.979237 -8.29044,16.804947 -5.82572,5.71369 -12.8838,5.71369 -7.17011,0 -10.5311,-5.71369 z"/>
		<path d="m 568.92266,73.934 h 11.31533 c 0.89627,-4.257253 -0.37344,-9.598774 -3.80912,-12.138189 -3.43568,-2.539415 -7.917,-3.809122 -13.44396,-3.809122 -18.74685,0 -30.36094,10.680479 -34.84226,32.041437 l -6.83401,31.817374 h 12.43566 l 6.38588,-29.912813 c 1.19502,-5.60165 2.87552,-10.269692 5.04149,-14.004125 2.16597,-3.809122 4.556,-6.535258 7.17011,-8.178409 2.6141,-1.64315 5.48961,-2.464725 8.62654,-2.464725 2.76348,0 4.81742,0.52282 6.16181,1.568461 1.41909,0.970953 2.0166,3.959781 1.79253,5.080111 z"/>
		<path d="m 303.52188,58.007876 c 10.81643,0 17.85506,3.916978 21.11589,11.750935 0.99415,3.300601 1.49123,6.422253 1.49123,9.364958 0,6.601202 -1.6503,14.435159 -4.9509,23.501871 -1.74971,4.33453 -4.39417,8.39069 -7.93337,12.16848 -3.77779,3.73803 -8.84799,6.28307 -15.2106,7.63512 -2.42574,0.43743 -5.54739,0.65615 -9.36496,0.65615 -3.81756,0 -8.11232,-1.19299 -12.88427,-3.57897 -5.88541,-3.73803 -8.82812,-8.94741 -8.82812,-15.62814 0,-8.152089 3.24095,-14.574344 9.72286,-19.266765 3.85733,-2.545041 9.34507,-3.817562 16.46324,-3.817562 h 21.47379 v -1.968431 c 0,-3.022237 -1.19299,-5.82576 -3.57897,-8.410568 -2.30644,-1.789482 -5.22926,-2.684223 -8.76846,-2.684223 -6.80003,0.437429 -10.33923,2.465239 -10.6176,6.203269 H 280.6165 c 0.39766,-3.300601 1.35205,-5.845373 2.86317,-7.634855 5.09009,-5.527513 11.77082,-8.291269 20.04221,-8.291269 z M 278.23052,101.9695 c -0.23859,4.01639 1.74972,7.29711 5.96495,9.84215 2.90293,1.11345 5.38832,1.67018 7.45617,1.67018 10.97549,0 18.21296,-7.71466 21.71239,-23.143971 h -20.81765 c -5.16961,0 -8.58951,0.815209 -10.2597,2.445626 -2.42574,2.067847 -3.77779,5.129852 -4.05616,9.186015 z"/>
		<path d="m 498.9099,58.086756 c 10.21993,0 17.03985,3.400017 20.45975,10.20005 1.43159,3.4199 2.14738,7.177813 2.14738,11.27374 0,4.095927 -0.89474,9.50414 -2.68422,16.224641 h -43.60373 c -0.31813,0 -0.47719,2.127494 -0.47719,6.382483 0,4.25499 1.6503,7.41641 4.9509,9.48426 2.22691,1.27252 4.71231,1.90878 7.45618,1.90878 3.85733,0 7.07839,-1.19299 9.6632,-3.57896 0.31813,-0.51696 0.57661,-1.29222 0.77544,-2.56475 h 11.51234 c -0.55673,3.26083 -1.49123,5.70628 -2.80352,7.3367 -1.94855,2.14738 -4.07604,3.83745 -6.38249,5.0702 -4.49359,2.22691 -9.74273,3.34037 -15.74744,3.34037 -7.03863,0 -12.52638,-2.30644 -16.46324,-6.91933 -2.82341,-3.85733 -4.23511,-9.30531 -4.23511,-16.343943 0.19883,-6.362605 1.90878,-13.739249 5.12985,-22.129934 6.00471,-13.122871 16.10534,-19.684307 30.3019,-19.684307 z m -22.18958,28.035226 0.71579,0.119298 h 32.32999 c 0.23859,-1.312287 0.45731,-3.062003 0.65614,-5.249148 0,-5.885409 -2.08773,-9.862037 -6.26319,-11.929883 -1.82925,-0.835092 -4.05616,-1.252638 -6.68073,-1.252638 -9.22578,0 -16.14511,6.104124 -20.758,18.312371 z"/>
		<path d="m 135.11103,35.614183 -8.95673,42.688551 c -2.86536,12.026503 -4.34571,20.053872 -4.34571,24.767576 0,2.96293 0.48076,5.92454 1.42774,8.85157 l 0.0215,0.0625 0.0234,0.0625 c 1.38348,3.58343 3.77217,6.44935 6.98242,8.2871 3.21025,1.83776 7.15188,2.67383 11.7207,2.67383 6.73414,0 12.87229,-2.89849 18.20508,-8.0625 3.60206,5.13011 8.8761,8.0625 15.25782,8.0625 7.02119,0 13.14023,-1.98405 17.98828,-5.97656 4.84804,-3.99251 8.36778,-9.87977 10.67187,-17.435547 l 0.0117,-0.03711 0.01,-0.03711 c 0.4843,-1.791913 1.73677,-7.651222 3.95507,-18.285156 2.21831,-10.633934 4.77555,-22.957682 8.8122,-42.743239 l 0.58789,-2.878906 h -16.17578 l -7.81415,38.586989 c -2.66091,12.827739 -4.23365,20.208032 -4.56836,21.546875 -0.26958,1.078299 -1.37968,3.572356 -3.23828,6.886724 -2.79838,4.05144 -5.5756,5.66992 -8.80859,5.66992 -0.79852,0 -1.56883,-0.1109 -2.33594,-0.32031 -1.09355,-0.37651 -1.77199,-0.91923 -2.33008,-1.85157 -0.56708,-0.94735 -0.97519,-2.38367 -1.04687,-4.38281 v -1.00586 c 0,-0.58713 0.0658,-1.39962 0.21289,-2.392579 l 0.006,-0.03906 0.004,-0.04102 c 0.002,-0.01727 0.32602,-1.893954 0.88086,-4.722656 0.55484,-2.828702 1.36456,-6.865171 2.42774,-12.101562 2.12635,-10.472783 4.69795,-22.867895 8.85321,-42.948318 l 0.59766,-2.884765 h -15.86133 l -0.4082,1.896484 c -4.15572,19.366847 -6.7385,31.210559 -8.88642,41.303786 -2.12037,9.963752 -3.17523,14.945677 -3.40235,16.244141 -1.26508,4.757327 -3.01571,8.134499 -5.02929,10.222659 -2.01387,2.08845 -4.21784,3.02344 -7.14453,3.02344 -0.50508,0 -1.41348,-0.16539 -2.52735,-0.51172 -1.96347,-0.92008 -2.88672,-2.49712 -2.88672,-6.21484 0,-0.32523 0.0393,-1.26441 0.10938,-2.521492 0.85219,-4.981599 4.57615,-23.332965 12.27509,-60.557693 l 0.5957,-2.884765 z"/>
	</g>
	<g aria-label="Offline" transform="matrix(1.0517292,0,-0.09053577,1.0517292,-28.914573,-5.3036862)" style="fill:#bfbfbf">
		<path d="m 568.38315,108.13229 q 0,-6.39161 3.49191,-10.802444 3.51233,-4.431251 9.37301,-4.431251 6.45288,0 9.86311,4.00242 3.41022,4.002415 3.41022,11.231275 0,7.22886 -3.57359,11.47633 -3.55316,4.24747 -10.10815,4.24747 -6.02405,0 -9.25049,-4.20663 -3.20602,-4.20662 -3.20602,-11.51717 z m 5.51354,0 q 0,5.24808 1.77658,8.12737 1.77659,2.87929 5.16639,2.87929 3.982,0 6.06489,-2.81803 2.10332,-2.81803 2.10332,-8.18863 0,-10.516557 -7.7598,-10.516557 -3.55317,0 -5.45227,2.858867 -1.89911,2.83845 -1.89911,7.65769 z"/>
		<path d="m 604.52745,98.146666 v 7.004234 h 10.51656 v 4.51293 h -10.51656 v 13.68174 h -5.30933 V 93.429529 h 19.70579 v 4.717137 z"/>
		<path d="m 628.92996,98.146666 v 7.004234 h 10.51656 v 4.51293 h -10.51656 v 13.68174 h -5.30933 V 93.429529 h 19.70579 v 4.717137 z"/>
		<path d="M 648.02314,123.34557 V 93.429529 h 5.30933 v 25.198911 h 13.51838 v 4.71713 z"/>
		<path d="M 671.24126,123.34557 V 93.429529 h 5.30933 v 29.916041 z"/>
		<path d="m 702.40295,123.75398 -14.51898,-18.92981 v 18.54182 h -5.10513 V 93.429529 h 2.55257 L 699.4624,111.48126 V 93.429529 h 5.10513 v 30.324451 z"/>
		<path d="m 716.00301,98.146666 v 7.004234 h 9.88352 v 4.51293 h -9.88352 v 8.96461 h 13.55922 v 4.71713 H 710.69368 V 93.429529 h 19.09317 v 4.717137 z"/>
	</g>
</svg>
