<svg xmlns="http://www.w3.org/2000/svg" width="804.8019" height="175.1268" viewBox="0 0 804.8019 175.1268">
    <g stroke="#ca0033" stroke-linecap="round" stroke-linejoin="round" stroke-width="1.5">
        <path fill="#ffc8d9" d="M19.121 57.784l-1.3 9q-.1 1.95-5.75 5-3.3 5.95 5.35 16.4l22.45-10.95q2.8-4.8 2.35-9.15l-5.6 2.45 5.6-2.45q-.15-1.45-.65-2.85-10.15-18.65-22.45-7.45z"/>
        <path fill="#f36" d="M116.421 33.534q-4.9-5.25-12.8-9.05-20.5-6.8-36.85 7.05-12.4 13.15-8.85 25.25 2.65.75 7.45.75-4.8 0-7.45-.75-1.3-.35-2.1-.85-27.4-10.7-36.7 1.85 12.3-11.2 22.45 7.45.5 1.4.65 2.85.45 4.35-2.35 9.15l13.05 18.15 14.1-21.4 3.7-5.65-3.7 5.65q17.35 16.65 37.85 6.6 20.45-10.1 19.25-29.45-.8-10.2-7.7-17.6m-33.3-4.9q2.5 0 5.25 2.25 2.85 2.35 2.85 4.8 0 2.25-.65 3.15-.8 1.05-2.9 1.05-.4 0-1.45-.5-1.05-.55-1.55.6-3.6 6.25-4.25 6.95-1.45 1.55-3.05 1.55-2.75 0-5.55-2.2-2.85-2.2-2.95-4.7-.1-2.5 6.1-7.7 6.15-5.25 8.15-5.25m15.95 11.05q-.95-1.3-.95-3.5.5-2.7 1.3-2.8.8-.1 1.3-.1 1.75 0 3.25 1.4 1.7 1.5 1.7 3.75 0 1.25-1.05 2-.95.65-2.5.65-2 0-3.05-1.4m57.65.55q-.4 1.2-1.55 3.9-1.2 2.7-.75 4.55.5 1.95 3.7 4.3 3.3 2.45 3.95 4.2.45 1.35.05 2.9-.35 1.45-1.3 2.7-1.1 1.3-2.9 2.35.2-.05.4-.05 15.2-.8-1.6-24.85m-3.9-20.45q-1.15-1.65-2.3-3.6-1.15-1.95-4.3-3.85-3.15-1.95-5.8-1.5-2.65.45-4.25 2.5-1.65 2-6.2 9.3-2.85 4.5-6.3 7.3-3.5 2.8-7.25 3.6 6.9 7.4 7.7 17.6 7.2 1.2 10.2 2.7 3 1.45 5.6 5 2.6 3.55 4 4.2 1.4.65 4.9 2.3 3.45 1.6 5.8.95 2.35-.7 3.3-1.15 1.8-1.05 2.9-2.35.95-1.25 1.3-2.7.4-1.55-.05-2.9-.65-1.75-3.95-4.2-3.2-2.35-3.7-4.3-.45-1.85.75-4.55 1.15-2.7 1.55-3.9.15-.45.2-.7.35-2.1-.55-4.2-.9-2.05-2.7-3.3-2-1.2-2.5-1.75-.55-.75-.6-1.8l2.75-2.7q.6-.65.6-1.9 0-2.45-1.1-4.1z"/>
        <path fill="#fff" stroke="none" d="M98.121 36.184q0 2.2.95 3.5 1.05 1.4 3.05 1.4 1.55 0 2.5-.65 1.05-.75 1.05-2 0-2.25-1.7-3.75-1.5-1.4-3.25-1.4-.5 0-1.3.1t-1.3 2.8m-9.75-5.3q-2.75-2.25-5.25-2.25-2 0-8.15 5.25-6.2 5.2-6.1 7.7.1 2.5 2.95 4.7 2.8 2.2 5.55 2.2 1.6 0 3.05-1.55.65-.7 4.25-6.95.5-1.15 1.55-.6 1.05.5 1.45.5 2.1 0 2.9-1.05.65-.9.65-3.15 0-2.45-2.85-4.8z"/>
    </g>
    <g stroke="#0078d7" stroke-linecap="round" stroke-linejoin="round" stroke-width="1.5">
        <path fill="#6dbeff" d="M53.321 97.534q-3.3 6.2-3.7 12.45-.35 4 .55 8.05 6.4 19.4 29.3 22.7 16.75.7 26.85-8.85-.65-2.65-1.4-4.6.75 1.95 1.4 4.6.4 1.6.75 3.5.55 2.75 1.6 8.3 2.35 10.3 7.5 14.75 3.55 3.05 7.15 2.7l.6-.1q3.2-.4 6.65-4.35 7.7-8.2 8.25-14.6.5-6.45-1.95-10.25t-6.8-6.9q1.2-4.95 7.15-9.9 5.2-4.35 9.6-4.5-.95-1.75-6.6-1.85-10.6-.25-16.7 2.25-5.25 2.15-8.05 3.25-.45.2-.85.35-2.85 1-6.3.65 3.45.35 6.3-.65.4-.15.85-.35 3.65-13.05-7.55-24-7.75-7.5-18.75-9.55-11.15-2.05-20.75 2.4-6.35 2.9-10.8 8.15-2.45 2.85-4.3 6.35m3.65 14.05q-1.15-2 1.45-9.8 2.6-7.85 4.25-8.95 2.05-1.45 5.35-1.1 3.45.3 4.65 2.35 1.05 1.85.9 2.95-.15 1.3-1.9 2.5-.3.25-1.45.45-1.1.15-.95 1.35-.1 7.2-.25 8.1-.5 2.15-1.85 3.05-2.25 1.55-5.55 1.3-3.4-.2-4.65-2.2m25.7-25.55q2.1.25 3.1 2.1.65 1.05.15 2.25-.55 1.1-1.85 2-1.6 1.1-3.05.55-1.5-.55-2.5-2.35-.85-2.55-.25-3.05.65-.55 1.05-.85 1.45-.95 3.35-.65m29.7 44.5l7.7 6.15-7.7-6.15m-80.2-61.25q-1.9-.15-4.15.55-1.4.5-3.85 1.7-3.05 1.5-4.4 2.55-2.2 1.65-2.95 3.7-.5 1.45-.45 3.9.1 3.3.05 4-.3 2.4-2.2 6.2-2.3 4.4-2.8 6.15-1.6 5.25.6 11.05 2 5.45 6.55 9.45 4.8 4.15 9.35 4.15 3.15-.1 6.45-2.35 1.85-1.25 5.55-4.65 3.25-3 5.8-4.35 2-1.05 3.9-1.35.4-6.25 3.7-12.45 1.85-3.5 4.3-6.35-3.55-.95-6.9-3.45-4.15-3.05-7.4-7.95-3.6-5.4-4.7-6.65-3.05-3.45-6.45-3.85m10.7 32.75q3.15.05 5.2.25-2.05-.2-5.2-.25-3.15-.05-4.2 0 1.05-.05 4.2 0z"/>
        <path fill="#bce1fe" d="M153.921 115.184q-.95-1.85-4.55-3.45-1.45-.65-2.55-1.2-4.4.15-9.6 4.5-5.95 4.95-7.15 9.9 4.35 3.1 6.8 6.9 2.45 3.8 1.95 10.25-.55 6.4-8.25 14.6-3.45 3.95-6.65 4.35l-.6.1q0 .45.2.95.6 1.6 2.05 2.1 1.95.65 5.75-1 20.8-9.3 28.5-23.65 1.6-2.9 1.75-5.75.15-3.35-2-5-.45-.35-1.75-1.05-1.2-.65-1.75-1.2-1.55-1.5-1.45-5.4.15-4.4-.7-5.95z"/>
        <path fill="#fff" stroke="none" d="M85.771 88.134q-1-1.85-3.1-2.1-1.9-.3-3.35.65-.4.3-1.05.85-.6.5.25 3.05 1 1.8 2.5 2.35 1.45.55 3.05-.55 1.3-.9 1.85-2 .5-1.2-.15-2.25m-27.35 13.65q-2.6 7.8-1.45 9.8 1.25 2 4.65 2.2 3.3.25 5.55-1.3 1.35-.9 1.85-3.05.15-.9.25-8.1-.15-1.2.95-1.35 1.15-.2 1.45-.45 1.75-1.2 1.9-2.5.15-1.1-.9-2.95-1.2-2.05-4.65-2.35-3.3-.35-5.35 1.1-1.65 1.1-4.25 8.95z"/>
    </g>
    <text x="604.2034" y="136.7156" fill="#ddd" stroke-width="1.3007" font-family="Trebuchet MS" font-size="62.4353">
        Offline
    </text>
    <g stroke="#000" stroke-linecap="round" stroke-linejoin="round" stroke-width="2" transform="translate(-96.8482 -53.9889) scale(1.32445)">
        <path fill="#f36" d="M240.35 66.4l-14.4 33.65-12.05-16.5-15.25 15.25-9.5-33.85-22.05 1.7L184.45 135l15.25-1.1 9.75-18.15 6.75 18.15h17.15l30.05-62.4z"/>
        <path fill="#6dbeff" d="M296.4 91.8l.85-8q-9.85-1.5-17.3 3.85l.8-3.85h-9.7l-11 53.8h9.3l5.7-26.9q5.1-17.85 21.35-18.9m37.25 38.3q9.65-11.8 10.15-28.95.6-17.3-18.4-17.15-15.75.1-18.8 12.9h8.85q1.95-5.25 10.7-4.75 8.7.5 8.15 10.65h-17.15q-19.25-.05-21.35 16.3-1.35 16.35 16.3 18.4.75.05 1.45.1.55 0 1.05.05 10.55.05 19.05-7.55m-17.1-1q-13.25.35-11.85-10 1.3-7.2 9.3-8.45h19.25q-2.75 18.05-16.7 18.45m83-22.8q1.45-9.55-4.7-18-6.2-8.5-21.35-4.75-15.2 3.75-21.05 21.5-1.8 5.8-10.5 47.9h9.4l4.95-20.65q6.75 6.3 17.6 4.35 12.4-2.05 19.05-11.8 5.1-9.05 6.6-18.55m-19.1-15.1q12.05 1.1 9.3 15.45-4.05 20.45-16.3 22.4-15.1.8-12.15-17.8 4.2-20.3 19.15-20.05m68.15-2.9q-6.2-8.5-21.35-4.75-15.2 3.75-21.05 21.5-1.8 5.8-10.5 47.9h9.4l4.95-20.65q6.75 6.3 17.6 4.35 12.4-2.05 19.05-11.8 5.1-9.05 6.6-18.55 1.45-9.55-4.7-18m-33.55 22.95q4.2-20.3 19.15-20.05 12.05 1.1 9.3 15.45-4.05 20.45-16.3 22.4-15.1.8-12.15-17.8m84.9 3.4q1.95-8 2.15-13.9.7-15.85-13.75-17.05-14.45-1.25-22.8 6-.8.7-1.5 1.45-2.7 2.8-4.55 6.95-1.45 3.2-2.35 7.15-1.7 5.45-2 14.65-.35 9.15 5.75 14.3 4.2 3.5 11.75 3.5 17.6-.05 19.5-13.1h-9.1q-1.65 6.15-10.6 5.2-8.95-.95-8.05-15.15h35.55m-34.05-8Q469.35 92 482.4 91.8q12.35 1 10.35 14.85H465.9m73.65-14.85l.85-8q-9.85-1.5-17.3 3.85l.8-3.85h-9.7l-11 53.8h9.3l5.7-26.9q5.1-17.85 21.35-18.9z"/>
    </g>
</svg>

