<?xml version="1.0" encoding="UTF-8" standalone="no"?>
<!-- Created with Inkscape (http://www.inkscape.org/) -->

<svg
   version="1.1"
   id="svg1"
   width="30"
   height="30"
   viewBox="0 0 30 30"
   xml:space="preserve"
   xmlns="http://www.w3.org/2000/svg"
   xmlns:svg="http://www.w3.org/2000/svg"><defs
     id="defs1" /><path
     id="path1"
     style="color:#000000;opacity:1;fill:#7c889c;stroke-linecap:round;-inkscape-stroke:none"
     d="M 11.494067,3.1827968 C 5.2926165,3.1830763 0.24044048,8.2352532 0.24016005,14.436703 0.23969664,20.49594 5.0627661,25.455554 11.068285,25.681062 v -2.293 C 6.3044822,23.166941 2.5327602,19.256779 2.5331288,14.436703 2.5333532,9.4750623 6.5307314,5.4770628 11.492114,5.4757655 h 0.002 c 3.51977,0.00193 6.708303,2.059101 8.160156,5.2656245 l 0.347656,0.767579 0.835938,-0.103516 c 0.198325,-0.02454 0.39788,-0.03625 0.597656,-0.04102 3.344956,0.0035 6.031183,2.689361 6.03125,6.035156 5.05e-4,3.347008 -2.686722,6.036853 -6.033203,6.039063 l -2.501087,-0.05059 -0.0011,2.293 2.494382,0.05056 h 0.002 0.002 c 4.587664,-9e-5 8.33077,-3.744366 8.330078,-8.332031 -9.2e-5,-4.587114 -3.742963,-8.3299864 -8.330078,-8.3300779 h -0.01172 -0.01172 c -0.04113,8.607e-4 -0.08194,0.0083 -0.123047,0.00977 -1.963223,-3.5774965 -5.664025,-5.895125 -9.7892,-5.8964883 z" /><g
     id="path2"
     style="opacity:1"
     transform="matrix(1.0814482,0,0,0.76299593,2.8689988,9.0138896)"><path
       id="path4"
       style="color:#000000;opacity:1;fill:#7c889c;stroke-linecap:round;-inkscape-stroke:none"
       d="M 11.491814,2.5303227 8.035078,8.5202793 5.9960732,12.050258 h 2.7343253 l 1.3563265,-2.3473462 1.405089,-2.4343798 1.40509,2.4343798 1.35452,2.3473462 h 2.737937 l -2.04081,-3.5299787 z" /><path
       style="opacity:1;fill:#091623;fill-opacity:1;stroke:#7c889c;stroke-width:2.36907;stroke-linecap:square;stroke-dasharray:none;stroke-opacity:1"
       d="M 11.492371,8.3326028 V 22.148897"
       id="path5" /></g></svg>
