<?xml version="1.0" encoding="UTF-8" standalone="no"?>
<!-- Created with Inkscape (http://www.inkscape.org/) -->

<svg
   width="140"
   height="210"
   viewBox="0 0 37.041666 55.562499"
   version="1.1"
   id="svg1"
   xml:space="preserve"
   xmlns="http://www.w3.org/2000/svg"
   xmlns:svg="http://www.w3.org/2000/svg"><defs
     id="defs1" /><g
     id="layer1"><path
       id="path37"
       style="opacity:1;fill:#ffffff;fill-opacity:1;stroke-width:0.994762;stroke-linecap:square"
       d="m 18.520832,1.3227709 a 4.1031832,4.1031832 0 0 0 -4.103391,4.1033933 4.1031832,4.1031832 0 0 0 4.103391,4.102745 4.1031832,4.1031832 0 0 0 4.103393,-4.102745 4.1031832,4.1031832 0 0 0 -4.103393,-4.1033933 z m -5.622088,8.9910661 c 0,0 -9.3258908,8.797425 -9.4087878,9.543497 -0.0829,0.74607 7.9710478,7.071487 7.9710478,7.071487 l 1.11263,-1.783577 -4.1169928,-4.966685 4.4621798,-4.072953 -0.365912,18.40698 0.180689,19.717143 3.312635,0.01 c 0,0 0.695207,-4.9685 1.338655,-10.1445 0.643422,-5.17582 1.135909,-10.854543 1.135944,-10.854953 2.9e-5,3.3e-4 0.492519,5.679093 1.135946,10.854953 0.643448,5.176 1.338655,10.1445 1.338655,10.1445 l 3.312634,-0.01 0.18069,-19.717143 -0.365912,-18.40698 4.46218,4.072953 -4.116993,4.966685 1.11263,1.783577 c 0,0 8.053951,-6.325417 7.971048,-7.071487 -0.0829,-0.746072 -9.40879,-9.543497 -9.40879,-9.543497 h -5.622088 z" /></g></svg>
