<?xml version="1.0" encoding="UTF-8" standalone="no"?>
<!-- Created with Inkscape (http://www.inkscape.org/) -->

<svg
   width="140"
   height="210"
   viewBox="0 0 37.041666 55.562499"
   version="1.1"
   id="svg1"
   xml:space="preserve"
   xmlns="http://www.w3.org/2000/svg"
   xmlns:svg="http://www.w3.org/2000/svg"><defs
     id="defs1" /><g
     id="layer1"><path
       id="path37"
       style="opacity:1;fill:#ffffff;fill-opacity:1;stroke-width:0.994762;stroke-linecap:square"
       d="M 18.520837,1.327771 A 4.5721185,4.1031832 0 0 0 13.94856,5.431164 4.5721185,4.1031832 0 0 0 18.520837,9.533909 4.5721185,4.1031832 0 0 0 23.093106,5.431164 4.5721185,4.1031832 0 0 0 18.520837,1.327771 Z m -6.575397,8.991066 c 0,0 -2.9328399,1.477567 -5.5476199,3.447343 -2.71715,2.046897 -5.12062,4.605774 -5.14608,5.515877 -0.0337,1.206675 4.56781,3.889338 7.82987,5.637631 -0.34345,2.393173 -0.61107,4.871004 -0.59064,6.689385 0.0857,7.635296 3.5794499,22.625656 3.5794499,22.625656 h 3.312637 c 0,0 1.95026,-8.63055 2.34766,-11.74933 0.34677,-2.72135 0.79008,-9.239923 0.79012,-9.240403 3e-5,3.9e-4 0.44333,6.519033 0.79011,9.240403 0.3974,3.11878 2.347659,11.74933 2.347659,11.74933 h 3.31264 c 0,0 3.49372,-14.99036 3.57945,-22.625656 0.0204,-1.818382 -0.24719,-4.296212 -0.59063,-6.689385 3.26206,-1.748293 7.86361,-4.430956 7.82986,-5.637631 -0.0255,-0.910103 -2.42894,-3.46898 -5.14608,-5.515877 -2.61477,-1.969776 -5.54762,-3.447343 -5.54762,-3.447343 h -6.575389 z m -1.49279,6.786531 c 0,0 -0.28925,1.380545 -0.6456999,3.361206 l -1.55755,-1.360673 z m 16.136376,0 2.20324,2.000533 -1.55755,1.360673 c -0.35644,-1.980657 -0.64569,-3.361206 -0.64569,-3.361206 z" /></g></svg>
