<?xml version="1.0" encoding="UTF-8" standalone="no"?>
<!-- Created with Inkscape (http://www.inkscape.org/) -->

<svg
   width="140"
   height="210"
   viewBox="0 0 37.041666 55.562499"
   version="1.1"
   id="svg1"
   xml:space="preserve"
   xmlns="http://www.w3.org/2000/svg"
   xmlns:svg="http://www.w3.org/2000/svg"><defs
     id="defs1" /><g
     id="layer1"><path
       id="path1"
       style="opacity:1;fill:#ffffff;fill-opacity:1;stroke-width:0.994762;stroke-linecap:square"
       d="m 18.520837,1.3277739 a 4.1031832,4.1031832 0 0 0 -4.103393,4.103393 4.1031832,4.1031832 0 0 0 4.103393,4.1027453 4.1031832,4.1031832 0 0 0 4.103392,-4.1027453 4.1031832,4.1031832 0 0 0 -4.103392,-4.103393 z M 12.898749,10.31884 c 0,0 -9.3258914,8.797425 -9.4087884,9.543497 -0.0829,0.74607 9.3783494,6.916056 9.3783494,6.916056 l 0.741538,-1.752491 -5.4653607,-5.260061 5.1402497,-4.120232 c 0,0 -0.205417,1.219074 0.211128,2.712928 0.416545,1.493855 1.300444,4.330712 1.300444,4.330712 0,0 -1.789302,5.126272 -2.014782,8.854415 -0.22548,3.728142 -0.104268,11.637932 -0.104268,11.637932 l 0.05634,11.05313 h 2.856702 c 0,0 0.765743,-5.84954 1.018077,-8.09021 0.348354,-3.0933 1.912455,-12.89952 1.912455,-12.89952 0,0 1.564102,9.80622 1.912456,12.89952 0.252334,2.24067 1.018076,8.09021 1.018076,8.09021 h 2.856702 l 0.05634,-11.05313 c 0,0 0.121211,-7.90979 -0.104269,-11.637932 -0.22548,-3.728143 -2.014781,-8.854415 -2.014781,-8.854415 0,0 0.883898,-2.836857 1.300444,-4.330712 0.416544,-1.493854 0.211127,-2.712928 0.211127,-2.712928 l 5.140252,4.120232 -5.465362,5.260061 0.741538,1.752491 c 0,0 9.461252,-6.169986 9.37835,-6.916056 -0.0829,-0.746072 -9.408789,-9.543497 -9.408789,-9.543497 h -5.622088 z" /></g></svg>
