<?xml version="1.0" encoding="UTF-8" standalone="no"?>
<!-- Created with Inkscape (http://www.inkscape.org/) -->

<svg
   width="140"
   height="210"
   viewBox="0 0 37.041666 55.562499"
   version="1.1"
   id="svg1"
   xml:space="preserve"
   xmlns="http://www.w3.org/2000/svg"
   xmlns:svg="http://www.w3.org/2000/svg"><defs
     id="defs1" /><g
     id="layer1"><path
       id="path37"
       style="opacity:1;fill:#ffffff;fill-opacity:1;stroke-width:0.994762;stroke-linecap:square"
       d="m 18.520835,1.3277709 a 4.5721185,4.1031832 0 0 0 -4.57227,4.1033933 4.5721185,4.1031832 0 0 0 4.57227,4.102745 4.5721185,4.1031832 0 0 0 4.572287,-4.102745 4.5721185,4.1031832 0 0 0 -4.572287,-4.1033933 z m -6.5754,8.9910661 c 0,0 -2.9328402,1.477567 -5.5476102,3.447343 -2.71715,2.046897 -5.1206203,4.605774 -5.1460803,5.515877 -0.0331,1.184075 4.3971503,3.789479 7.6452903,5.538543 -0.11831,0.45591 -0.24229,0.893465 -0.37174,1.303035 -1.27594,4.036889 -4.63509,8.352501 -4.63509,8.352501 0,0 1.32162,0.91345 4.88573,1.36586 0.84917,7.899613 3.2945002,18.392733 3.2945002,18.392733 h 3.31263 c 0,0 1.95026,-8.63055 2.34767,-11.74933 0.18544,-1.45529 0.39821,-3.99669 0.55631,-6.046293 h 0.46759 c 0.15809,2.049603 0.37087,4.591003 0.55631,6.046293 0.3974,3.11878 2.347677,11.74933 2.347677,11.74933 h 3.31263 c 0,0 2.44533,-10.49312 3.2945,-18.392733 3.56411,-0.45241 4.88573,-1.36586 4.88573,-1.36586 0,0 -3.35916,-4.315612 -4.6351,-8.352501 -0.12945,-0.40957 -0.2535,-0.847125 -0.37174,-1.303035 3.24814,-1.749064 7.67841,-4.354468 7.64528,-5.538543 -0.0254,-0.910103 -2.42892,-3.46898 -5.14608,-5.515877 -2.61476,-1.969776 -5.5476,-3.447343 -5.5476,-3.447343 h -6.575407 z m -1.64498,6.924475 c -0.12182,0.891372 -0.28795,2.019224 -0.4948002,3.221967 l -1.55625,-1.359378 z m 16.440767,0 2.05104,1.862589 -1.55625,1.359378 c -0.20685,-1.202743 -0.37301,-2.330595 -0.49479,-3.221967 z" /></g></svg>
