<?xml version="1.0" encoding="UTF-8" standalone="no"?>
<!-- Created with Inkscape (http://www.inkscape.org/) -->

<svg
   width="140"
   height="210"
   viewBox="0 0 37.041666 55.562499"
   version="1.1"
   id="svg1"
   xml:space="preserve"
   xmlns="http://www.w3.org/2000/svg"
   xmlns:svg="http://www.w3.org/2000/svg"><defs
     id="defs1" /><g
     id="layer1"><path
       id="path37"
       style="opacity:1;fill:#ffffff;fill-opacity:1;stroke-width:1.29752;stroke-linecap:square"
       d="m 18.521482,9.570732 c -2.91366,-4.5e-5 -5.27566,2.361951 -5.27561,5.275605 -5e-5,2.913656 2.36195,5.275651 5.27561,5.275605 2.9134,-3.14e-4 5.27436,-2.362204 5.27431,-5.275605 5e-5,-2.913399 -2.36091,-5.27529 -5.27431,-5.275605 z m -3.92788,11.569286 c 0,0 -4.9235795,4.308796 -4.9822295,4.865656 -0.0587,0.556861 4.6894995,4.044458 4.6894995,4.044458 l 0.33677,-0.864588 c 0,0 -2.2521,-2.714745 -2.4474,-2.916284 0.23601,-0.211165 2.85281,-2.370332 2.85281,-2.370332 l -0.35879,9.416566 -0.11981,14.378713 h 2.37357 c 0.6139,-3.85727 1.13359,-7.72726 1.58282,-11.606853 0.46005,3.990853 0.64317,5.417893 1.58215,11.606853 h 2.37422 l -0.12046,-14.378713 -0.35879,-9.416566 c 0,0 2.616803,2.159167 2.852823,2.370332 -0.19529,0.201539 -2.446743,2.916284 -2.446743,2.916284 l 0.33676,0.864588 c 0,0 4.748123,-3.487597 4.689493,-4.044458 -0.0587,-0.55686 -4.982213,-4.865656 -4.982213,-4.865656 -2.61848,-0.08526 -5.23593,-0.03886 -7.85448,0 z" /></g></svg>
