<?xml version="1.0" encoding="UTF-8" standalone="no"?>
<!-- Created with Inkscape (http://www.inkscape.org/) -->

<svg
   width="140"
   height="210"
   viewBox="0 0 37.041666 55.562499"
   version="1.1"
   id="svg1"
   xml:space="preserve"
   xmlns="http://www.w3.org/2000/svg"
   xmlns:svg="http://www.w3.org/2000/svg"><defs
     id="defs1" /><g
     id="layer1"><path
       id="path30"
       style="opacity:1;fill:#ffffff;fill-opacity:1;stroke-width:1.29752;stroke-linecap:square"
       d="m 18.520834,9.570732 c -2.91365,-4.6e-5 -5.27566,2.36195 -5.27561,5.275605 -5e-5,2.913657 2.36196,5.275652 5.27561,5.275605 2.91341,-3.1e-4 5.27501,-2.362201 5.27496,-5.275605 5e-5,-2.913402 -2.36155,-5.275294 -5.27496,-5.275605 z m -3.92723,11.569286 c 0,0 -4.92362,4.308796 -4.98223,4.865656 -0.0568,0.538927 4.38824,3.823136 4.67459,4.034096 -0.38261,1.707966 -1.72158,3.765354 -2.09572,4.318404 0,0 1.05677,0.26762 2.48107,0.50839 l -0.10686,12.827643 h 2.37356 c 0.6139,-3.85727 1.13362,-7.72725 1.58282,-11.606853 0.46007,3.990983 0.64323,5.418193 1.58216,11.606853 h 2.37422 l -0.1075,-12.827643 c 1.42458,-0.2408 2.48172,-0.50839 2.48172,-0.50839 -0.39702,-0.58686 -1.7161,-2.62413 -2.09574,-4.319052 0.29153,-0.214756 4.7313,-3.494867 4.6746,-4.033448 -0.0587,-0.55686 -4.98222,-4.865656 -4.98222,-4.865656 -2.61849,-0.08526 -5.23592,-0.03886 -7.85447,0 z m 0.44945,2.75891 c -0.0521,1.375299 -0.39158,4.04996 -0.56149,5.098155 -0.51368,-0.618472 -2.12737,-2.558628 -2.29132,-2.727823 0.23601,-0.211165 2.85281,-2.370332 2.85281,-2.370332 z m 6.95491,0 c 0,0 2.61746,2.159167 2.85347,2.370332 -0.16395,0.169195 -1.77764,2.10935 -2.29132,2.727823 -0.16699,-1.030167 -0.50866,-3.71101 -0.56215,-5.098155 z" /></g></svg>
