<?xml version="1.0" encoding="UTF-8" standalone="no"?>
<!-- Created with Inkscape (http://www.inkscape.org/) -->

<svg
   width="140"
   height="210"
   viewBox="0 0 37.041666 55.562499"
   version="1.1"
   id="svg1"
   xml:space="preserve"
   xmlns="http://www.w3.org/2000/svg"
   xmlns:svg="http://www.w3.org/2000/svg"><defs
     id="defs1" /><g
     id="layer1"><path
       id="path37"
       style="opacity:1;fill:#ffffff;fill-opacity:1;stroke-width:0.994762;stroke-linecap:square"
       d="m 18.52083,1.327771 a 4.1031832,4.1031832 0 0 0 -4.10339,4.103393 4.1031832,4.1031832 0 0 0 4.10339,4.102745 4.1031832,4.1031832 0 0 0 4.1034,-4.102745 4.1031832,4.1031832 0 0 0 -4.1034,-4.103393 z m -9.8912711,8.991066 c 0,0 -5.056706,8.797425 -5.139603,9.543497 -0.0829,0.74607 8.6743741,7.599307 8.6743741,7.599307 l 0.760967,-2.282254 -4.4686571,-4.995828 2.3275881,-2.539362 c 0,0 0.627679,1.449388 1.178042,2.485609 0.550364,1.03622 1.444865,2.418255 1.444865,2.418255 l 0.343245,6.331245 c 0,0 -0.534923,3.172689 -0.838683,5.94137 -0.303761,2.768683 -0.178098,19.414053 -0.178098,19.414053 h 3.312635 c 0,0 0.706806,-4.31992 1.104216,-7.43869 0.34677,-2.72138 1.37033,-13.550463 1.37038,-13.551043 7e-5,7.5e-4 1.02362,10.829683 1.37039,13.551043 0.39741,3.11877 1.10421,7.43869 1.10421,7.43869 h 3.31264 c 0,0 0.12566,-16.64537 -0.1781,-19.414053 -0.30376,-2.768681 -0.83868,-5.94137 -0.83868,-5.94137 l 0.34324,-6.331245 c 0,0 0.8945,-1.382035 1.44487,-2.418255 0.55036,-1.036221 1.17804,-2.485609 1.17804,-2.485609 l 2.32759,2.539362 -4.46866,4.995828 0.76097,2.282254 c 0,0 8.75733,-6.853237 8.67437,-7.599307 -0.0829,-0.746072 -5.1396,-9.543497 -5.1396,-9.543497 h -9.89128 z" /></g></svg>
