<?xml version="1.0" encoding="UTF-8"?>
<svg xmlns="http://www.w3.org/2000/svg" width="50" height="50" viewBox="0 0 13.229166 13.229167">
	<g>
		<path fill="#505e73" d="M 6.6145833,0 C 2.9614499,1.1045694e-7 1.1045694e-7,2.9614499 0,6.6145833 c -1.1045695e-7,3.6531337 2.9614497,6.6145837 6.6145833,6.6145837 3.6531337,0 6.6145837,-2.96145 6.6145837,-6.6145837 C 13.229167,2.9614497 10.267717,-1.1045695e-7 6.6145833,0 Z M 5.6058594,1.99316 H 7.6233073 L 7.3752604,8.4222249 H 5.8539062 Z m 0.9818522,7.0745036 c 0.534851,-2.28e-5 0.9684392,0.4335654 0.9684163,0.9684164 2.27e-5,0.534851 -0.4335654,0.968439 -0.9684163,0.968416 C 6.0528607,11.004519 5.6192725,10.570931 5.6192952,10.03608 5.6192723,9.5012289 6.0528605,9.0676407 6.5877116,9.0676636 Z"/>
	</g>
</svg>
