<?xml version="1.0" encoding="UTF-8"?>
<svg xmlns="http://www.w3.org/2000/svg" width="50" height="50" viewBox="0 0 13.229166 13.229167">
	<g>
		<path fill="#505e73" d="M 0 0 L 0 13.229167 L 13.229167 13.229167 L 13.229167 0 L 0 0 z M 10.250537 1.8996257 C 10.276753 1.8993332 10.301892 1.8994305 10.325468 1.8996257 C 10.49693 1.9010443 10.596769 1.9135783 10.596769 1.9135783 L 10.596769 3.5341512 C 10.596769 3.5341512 9.8659053 3.4786552 9.1534465 3.8121704 C 8.5772172 4.0819138 7.885932 4.6064102 7.3406372 5.8327189 L 10.067603 5.8327189 L 10.067603 7.2078288 L 6.8636637 7.2078288 C 6.2230842 9.1664593 5.3019502 10.244706 4.4462402 10.794173 C 3.9913286 11.086279 3.5646274 11.22558 3.2411458 11.28665 C 2.9176645 11.34772 2.6339478 11.325407 2.6339478 11.325407 L 2.6323975 9.6975993 C 2.6323975 9.6975993 2.8399702 9.6820173 2.9791463 9.6557414 C 3.1183224 9.6294655 3.289478 9.5662661 3.5517212 9.397876 C 4.0762074 9.0610958 4.8284516 8.2889504 5.3898519 6.3629191 C 6.0662523 4.0423487 7.3248329 2.8367089 8.4501302 2.3099365 C 9.1754193 1.9704152 9.8572929 1.904013 10.250537 1.8996257 z " />
	</g>
</svg>
