<?xml version="1.0" encoding="UTF-8"?>
<svg xmlns="http://www.w3.org/2000/svg" width="50" height="50" viewBox="0 0 13.229166 13.229167">
	<g>
		<path fill="#505e73" d="M 3.7584266,1.2542452 2.9197181,3.0939262 H -2.5e-7 V 11.974921 H 13.229167 V 3.0939262 H 10.309448 L 9.4707395,1.2542452 Z M 9.8469439,3.7548677 H 12.973885 V 4.5088269 H 9.8469439 Z M 6.614583,3.9924582 C 8.8008942,3.9925989 10.043976,5.2359118 10.043831,7.422223 10.04369,9.6083323 8.8006923,10.851329 6.614583,10.85147 4.4284737,10.851329 3.1854759,9.6083323 3.185335,7.422223 3.1851902,5.2359118 4.4282718,3.9925989 6.614583,3.9924582 Z m 0,1.108759 C 4.9793512,5.101296 4.2938874,5.7869912 4.294094,7.422223 4.294173,9.0572529 4.9795531,9.7426323 6.614583,9.7427113 8.2496129,9.7426323 8.934993,9.0572529 8.935072,7.422223 8.9352786,5.7869912 8.2498148,5.101296 6.614583,5.1012172 Z"/>
	</g>
</svg>
