<?xml version="1.0" encoding="UTF-8"?>
<svg xmlns="http://www.w3.org/2000/svg" width="50" height="50" viewBox="0 0 13.229166 13.229167">
	<g>
		<path fill="#505e73" d="M 12.360483,0.13299734 4.1226428,1.4120446 c 0,0 0,5.8405111 0,8.7607664 -0.4342099,-0.11232 -1.00441,-0.06485 -1.5893869,0.167831 -1.0956647,0.435813 -1.82698641,1.355569 -1.6335529,2.054014 0.1934324,0.698444 1.2380664,0.911039 2.333731,0.475225 0.9985547,-0.397186 1.6944794,-1.196009 1.6635858,-1.863215 V 3.4772464 L 11.584929,2.4384621 V 8.6217016 C 11.150651,8.5091996 10.580177,8.5567533 9.9949534,8.7895325 8.8992887,9.2253455 8.167967,10.145101 8.3614002,10.843545 c 0.1934333,0.698445 1.2380673,0.911039 2.3337308,0.475227 0.992946,-0.394955 1.686788,-1.187114 1.664175,-1.8520281 -0.0015,0.00414 0.0011,-9.33374656 0.0011,-9.33374656 z"/>
	</g>
</svg>
