<?xml version="1.0" encoding="UTF-8"?>
<svg xmlns="http://www.w3.org/2000/svg" width="50" height="50" viewBox="0 0 13.229166 13.229167">
	<g>
		<path fill="#505e73" d="m 1.3978478,0.58962788 c -0.60952447,0 -1.10019124,0.49066682 -1.10019124,1.10019122 v 9.8495279 c 0,0.609527 0.49066677,1.100192 1.10019124,1.100192 H 11.831319 c 0.609526,0 1.100191,-0.490665 1.100191,-1.100192 V 1.6898191 c 0,-0.6095244 -0.490665,-1.10019122 -1.100191,-1.10019122 z M 1.9817915,1.4748452 H 3.2974734 V 3.0675128 H 1.2598717 V 2.1972817 c 0,-0.4000543 0.3218655,-0.7224365 0.7219198,-0.7224365 z m 2.2742798,0 H 9.001518 V 6.1350258 H 4.2560713 Z m 5.7040446,0 h 1.2872591 c 0.400056,0 0.72192,0.3223822 0.72192,0.7224365 V 3.0675128 H 9.9601159 Z M 1.2598717,3.8116534 H 3.2974734 V 5.1841795 H 1.2598717 Z m 8.7002442,0 H 11.969295 V 5.1841795 H 9.9601159 Z M 1.2598717,5.9283201 H 3.2974734 V 7.3008462 H 1.2598717 Z m 8.7002442,0 H 11.969295 V 7.3008462 H 9.9601159 Z M 4.2560713,7.0941404 H 9.001518 V 11.754321 H 4.2560713 Z M 1.2598717,8.0449868 h 2.0376017 v 1.372526 H 1.2598717 Z m 8.7002442,0 h 2.0091791 v 1.372526 H 9.9601159 Z M 1.2598717,10.161654 h 2.0376017 v 1.592667 H 1.9817915 c -0.4000543,0 -0.7219198,-0.322384 -0.7219198,-0.722436 z m 8.7002442,0 h 2.0091791 v 0.870231 c 0,0.400052 -0.321864,0.722436 -0.72192,0.722436 H 9.9601159 Z" />
	</g>
</svg>
