<svg id="Layer_1" data-name="Layer 1" xmlns="http://www.w3.org/2000/svg" viewBox="0 0 784.83 155.12"><defs><style>.cls-1{fill:#669dd6;}.cls-1,.cls-2,.cls-4,.cls-5,.cls-8,.cls-9{stroke:#000;stroke-linecap:round;stroke-linejoin:round;}.cls-1,.cls-2,.cls-4,.cls-5{stroke-width:1.5px;}.cls-2,.cls-8{fill:#005bbb;}.cls-3{fill:#fff;}.cls-4,.cls-9{fill:#ffd500;}.cls-5{fill:#fe9;}.cls-6{isolation:isolate;}.cls-7{fill:#ddd;}.cls-8,.cls-9{stroke-width:2.65px;}</style></defs><title>list_logo</title><path class="cls-1" d="M19.12,57.78l-1.3,9c-.07,1.3-2,3-5.75,5q-3.3,6,5.35,16.4l22.45-11a15,15,0,0,0,2.35-9.15l-5.6,2.45,5.6-2.45a12.5,12.5,0,0,0-.65-2.85Q31.41,46.58,19.12,57.78Z" transform="translate(-10 -10)"/><path class="cls-2" d="M116.42,33.53a42.51,42.51,0,0,0-12.8-9q-20.5-6.8-36.85,7.05-12.4,13.15-8.85,25.25a28.74,28.74,0,0,0,7.45.75,28.74,28.74,0,0,1-7.45-.75,7.44,7.44,0,0,1-2.1-.85q-27.41-10.69-36.7,1.85,12.3-11.19,22.45,7.45a12.5,12.5,0,0,1,.65,2.85,15,15,0,0,1-2.35,9.15L52.92,95.38,67,74l3.7-5.65L67,74q17.36,16.65,37.85,6.6t19.25-29.45a28.33,28.33,0,0,0-7.7-17.6m-33.3-4.9a8.44,8.44,0,0,1,5.25,2.25q2.85,2.36,2.85,4.8a5.64,5.64,0,0,1-.65,3.15,3.44,3.44,0,0,1-2.9,1.05,4.09,4.09,0,0,1-1.45-.5,1,1,0,0,0-1.55.6,73.94,73.94,0,0,1-4.25,7,4.17,4.17,0,0,1-3,1.55,9,9,0,0,1-5.55-2.2q-2.85-2.19-2.95-4.7t6.1-7.7q6.15-5.25,8.15-5.25M99.07,39.68a5.81,5.81,0,0,1-.95-3.5c.33-1.8.77-2.73,1.3-2.8a12.57,12.57,0,0,1,1.3-.1,4.69,4.69,0,0,1,3.25,1.4,4.8,4.8,0,0,1,1.7,3.75,2.33,2.33,0,0,1-1,2,4.3,4.3,0,0,1-2.5.65,3.57,3.57,0,0,1-3.05-1.4m57.65.55c-.27.8-.78,2.1-1.55,3.9a7.23,7.23,0,0,0-.75,4.55c.33,1.3,1.57,2.74,3.7,4.3s3.52,3,3.95,4.2a5,5,0,0,1,.05,2.9,7.19,7.19,0,0,1-1.3,2.7,10.9,10.9,0,0,1-2.9,2.35,1.83,1.83,0,0,1,.4,0q15.19-.8-1.6-24.85m-3.9-20.45c-.77-1.1-1.53-2.3-2.3-3.6a12.19,12.19,0,0,0-4.3-3.85,8.37,8.37,0,0,0-5.8-1.5,6.63,6.63,0,0,0-4.25,2.5,111.54,111.54,0,0,0-6.2,9.3,29.72,29.72,0,0,1-6.3,7.3,17.33,17.33,0,0,1-7.25,3.6,28.33,28.33,0,0,1,7.7,17.6q7.2,1.2,10.2,2.7a15.59,15.59,0,0,1,5.6,5c1.73,2.37,3.07,3.77,4,4.2l4.9,2.3q3.45,1.61,5.8,1a24.71,24.71,0,0,0,3.3-1.15,10.9,10.9,0,0,0,2.9-2.35,7.19,7.19,0,0,0,1.3-2.7,5,5,0,0,0-.05-2.9q-.65-1.74-3.95-4.2c-2.13-1.56-3.37-3-3.7-4.3a7.23,7.23,0,0,1,.75-4.55c.77-1.8,1.28-3.1,1.55-3.9a5.47,5.47,0,0,0,.2-.7,7.42,7.42,0,0,0-.55-4.2,7.78,7.78,0,0,0-2.7-3.3,13.12,13.12,0,0,1-2.5-1.75,3.18,3.18,0,0,1-.6-1.8l2.75-2.7a2.69,2.69,0,0,0,.6-1.9,7.27,7.27,0,0,0-1.1-4.1Z" transform="translate(-10 -10)"/><path class="cls-3" d="M98.12,36.18a5.81,5.81,0,0,0,.95,3.5,3.57,3.57,0,0,0,3.05,1.4,4.3,4.3,0,0,0,2.5-.65,2.33,2.33,0,0,0,1-2,4.8,4.8,0,0,0-1.7-3.75,4.69,4.69,0,0,0-3.25-1.4h-1.3c-.53,0-1,.94-1.3,2.8m-9.75-5.3a8.44,8.44,0,0,0-5.25-2.25q-2,0-8.15,5.25t-6.1,7.7q.1,2.51,2.95,4.7a9,9,0,0,0,5.55,2.2,4.17,4.17,0,0,0,3-1.55,73.94,73.94,0,0,0,4.25-6.95,1,1,0,0,1,1.55-.6,4.09,4.09,0,0,0,1.45.5,3.44,3.44,0,0,0,2.9-1.05,5.64,5.64,0,0,0,.65-3.15Q91.22,33.14,88.37,30.78Z" transform="translate(-10 -10)"/><path class="cls-4" d="M53.32,97.53A30.62,30.62,0,0,0,49.62,110a26.43,26.43,0,0,0,.55,8q6.4,19.41,29.3,22.7,16.75.71,26.85-8.85a38.23,38.23,0,0,0-1.4-4.6,38.23,38.23,0,0,1,1.4,4.6c.27,1.07.52,2.24.75,3.5.37,1.84.9,4.6,1.6,8.3q2.35,10.31,7.5,14.75,3.56,3.06,7.15,2.7l.6-.1q3.19-.39,6.65-4.35,7.69-8.19,8.25-14.6t-1.95-10.25a25.67,25.67,0,0,0-6.8-6.9q1.2-5,7.15-9.9,5.21-4.35,9.6-4.5-.94-1.74-6.6-1.85-10.6-.24-16.7,2.25-5.25,2.16-8,3.25c-.3.14-.58.25-.85.35a14.29,14.29,0,0,1-6.3.65,14.29,14.29,0,0,0,6.3-.65c.27-.1.55-.21.85-.35q3.65-13.05-7.55-24a35.8,35.8,0,0,0-18.75-9.55A33.8,33.8,0,0,0,68.42,83a30.82,30.82,0,0,0-10.8,8.15,34.36,34.36,0,0,0-4.3,6.35m3.65,14q-1.15-2,1.45-9.8t4.25-9A7.67,7.67,0,0,1,68,91.73c2.3.2,3.85,1,4.65,2.35a5.11,5.11,0,0,1,.9,3,3.78,3.78,0,0,1-1.9,2.5,3.5,3.5,0,0,1-1.45.45c-.73.1-1,.55-1,1.35q-.1,7.2-.25,8.1a4.74,4.74,0,0,1-1.85,3,8.33,8.33,0,0,1-5.55,1.3q-3.4-.19-4.65-2.2M82.67,86a3.87,3.87,0,0,1,3.1,2.1,2.36,2.36,0,0,1,.15,2.25,5.42,5.42,0,0,1-1.85,2,3.17,3.17,0,0,1-3,.55,4.82,4.82,0,0,1-2.5-2.35c-.57-1.7-.65-2.71-.25-3s.78-.65,1-.85A4.61,4.61,0,0,1,82.67,86m29.7,44.5,7.7,6.15-7.7-6.15M32.17,69.28a11.2,11.2,0,0,0-4.15.55,41.87,41.87,0,0,0-3.85,1.7,27.36,27.36,0,0,0-4.4,2.55,8.25,8.25,0,0,0-2.95,3.7,11.78,11.78,0,0,0-.45,3.9c.07,2.2.08,3.54.05,4a20.41,20.41,0,0,1-2.2,6.2A40.63,40.63,0,0,0,11.42,98a16.67,16.67,0,0,0,.6,11,22.9,22.9,0,0,0,6.55,9.45q4.8,4.16,9.35,4.15a12.11,12.11,0,0,0,6.45-2.35,54.76,54.76,0,0,0,5.55-4.65,29.08,29.08,0,0,1,5.8-4.35,12.6,12.6,0,0,1,3.9-1.35,30.62,30.62,0,0,1,3.7-12.45,34.36,34.36,0,0,1,4.3-6.35,20.15,20.15,0,0,1-6.9-3.45,30.83,30.83,0,0,1-7.4-8c-2.4-3.6-4-5.81-4.7-6.65a10.36,10.36,0,0,0-6.45-3.85M42.87,102c2.1,0,3.83.12,5.2.25-1.37-.13-3.1-.21-5.2-.25s-3.5,0-4.2,0Q39.72,102,42.87,102Z" transform="translate(-10 -10)"/><path class="cls-5" d="M153.92,115.18q-.94-1.84-4.55-3.45-1.45-.65-2.55-1.2-4.4.15-9.6,4.5-6,4.95-7.15,9.9a25.67,25.67,0,0,1,6.8,6.9q2.44,3.81,1.95,10.25t-8.25,14.6q-3.45,4-6.65,4.35l-.6.1a2.61,2.61,0,0,0,.2,1,3.27,3.27,0,0,0,2,2.1c1.3.44,3.22.1,5.75-1q20.81-9.3,28.5-23.65a13.25,13.25,0,0,0,1.75-5.75,5.58,5.58,0,0,0-2-5,15.09,15.09,0,0,0-1.75-1,7.64,7.64,0,0,1-1.75-1.2c-1-1-1.52-2.8-1.45-5.4q.15-4.39-.7-5.95Z" transform="translate(-10 -10)"/><path class="cls-3" d="M85.77,88.13a3.87,3.87,0,0,0-3.1-2.1,4.61,4.61,0,0,0-3.35.65c-.27.2-.62.49-1,.85s-.32,1.35.25,3A4.82,4.82,0,0,0,81,92.93a3.17,3.17,0,0,0,3-.55,5.42,5.42,0,0,0,1.85-2,2.36,2.36,0,0,0-.15-2.25M58.42,101.78q-2.6,7.8-1.45,9.8t4.65,2.2a8.33,8.33,0,0,0,5.55-1.3,4.74,4.74,0,0,0,1.85-3q.15-.9.25-8.1c-.1-.8.22-1.25,1-1.35a3.5,3.5,0,0,0,1.45-.45,3.78,3.78,0,0,0,1.9-2.5,5.11,5.11,0,0,0-.9-3c-.8-1.36-2.35-2.15-4.65-2.35a7.67,7.67,0,0,0-5.35,1.1Q61,93.94,58.42,101.78Z" transform="translate(-10 -10)"/><g class="cls-6"><path class="cls-7" d="M606.64,114q0-9.69,4.86-16.21a15.54,15.54,0,0,1,13.13-6.53q9.3,0,14.25,6t5,16.73q0,11-5,17.24t-14.24,6.24a15.42,15.42,0,0,1-13.22-6.59Q606.64,124.31,606.64,114Zm6.4,0a24.88,24.88,0,0,0,3,12.84q3,5.15,8.55,5.15a10.88,10.88,0,0,0,9.53-4.72q3.27-4.72,3.27-13.27,0-17.25-12.8-17.25a9.6,9.6,0,0,0-8.63,4.63Q613,106,613,114Z" transform="translate(-10 -10)"/><path class="cls-7" d="M668,95.86a10.34,10.34,0,0,0-3.29-.61,5.53,5.53,0,0,0-4.38,2,7.59,7.59,0,0,0-1.72,5.09,10.23,10.23,0,0,0,.15,1.71h6.65v4.87H658.8v27.78H653V108.94h-4.75v-4.87H653q0-6.25,3.08-9.82a10.22,10.22,0,0,1,8.14-3.57,18.08,18.08,0,0,1,5.43.92Z" transform="translate(-10 -10)"/><path class="cls-7" d="M691.12,95.86a10.34,10.34,0,0,0-3.29-.61,5.53,5.53,0,0,0-4.38,2,7.54,7.54,0,0,0-1.72,5.09,10.23,10.23,0,0,0,.15,1.71h6.65v4.87h-6.65v27.78h-5.79V108.94h-4.76v-4.87h4.76q0-6.25,3.08-9.82a10.21,10.21,0,0,1,8.14-3.57,18,18,0,0,1,5.42.92Z" transform="translate(-10 -10)"/><path class="cls-7" d="M697,127.48V90.68h5.79V126.5a5.59,5.59,0,0,0,1.51,4.13,5.34,5.34,0,0,0,4,1.51v5.19Q697,137.33,697,127.48Z" transform="translate(-10 -10)"/><path class="cls-7" d="M717.76,136.72V108.94h-4.48v-4.87h10.28v32.65Zm3.17-45a3.47,3.47,0,0,1,2.55,1,3.57,3.57,0,0,1,0,5.06,3.47,3.47,0,0,1-2.55,1,3.43,3.43,0,0,1-2.51-1,3.56,3.56,0,0,1,2.51-6.11Z" transform="translate(-10 -10)"/><path class="cls-7" d="M752.85,136.72v-19c0-3.47-.52-5.91-1.57-7.3s-2.8-2.09-5.26-2.09a8.63,8.63,0,0,0-4.14,1.19,9.32,9.32,0,0,0-3.33,2.93v24.27h-5.79V104.07h4l1.82,4.2q2.87-4.81,9.36-4.81,10.74,0,10.74,13v20.22Z" transform="translate(-10 -10)"/><path class="cls-7" d="M794.38,121H770.84c0,3.83,1,6.76,3.14,8.81a9.84,9.84,0,0,0,7.13,2.69,12.19,12.19,0,0,0,8.3-2.9l2.43,4.18a10.89,10.89,0,0,1-4.11,2.31,22.13,22.13,0,0,1-7.74,1.29,14.46,14.46,0,0,1-10.46-4.18q-4.78-4.6-4.79-12.38,0-8.07,4.91-13a14.25,14.25,0,0,1,10.4-4.36q7,0,10.94,3.93a13.44,13.44,0,0,1,3.84,10A13.07,13.07,0,0,1,794.38,121Zm-14.06-12.62a9.16,9.16,0,0,0-9.33,8.42h18.08a8.27,8.27,0,0,0-2.19-5.86A8.62,8.62,0,0,0,780.32,108.33Z" transform="translate(-10 -10)"/></g><path class="cls-8" d="M221.48,34,202.41,78.52l-16-21.85-20.2,20.2L153.67,32l-29.2,2.26,23,90.52,20.19-1.46,12.92-24,8.94,24h22.71L252,40.71Z" transform="translate(-10 -10)"/><path class="cls-9" d="M295.72,67.6,296.84,57q-13-2-22.91,5.1L275,57H262.14l-14.56,71.26h12.31l7.55-35.63q6.75-23.64,28.28-25m49.33,50.72Q357.85,102.69,358.5,80q.79-22.92-24.37-22.72-20.86.14-24.9,17.09H321q2.58-7,14.17-6.29t10.8,14.1H323.2q-25.5-.06-28.28,21.59-1.79,21.66,21.59,24.37l1.92.14c.49,0,.95,0,1.39.06q14,.08,25.23-10M322.41,117q-17.55.47-15.7-13.25,1.73-9.52,12.32-11.19h25.49q-3.63,23.91-22.11,24.44M432.34,86.8q1.92-12.64-6.23-23.84t-28.28-6.29q-20.13,5-27.88,28.47-2.38,7.69-13.9,63.45H368.5l6.55-27.35q8.94,8.34,23.31,5.76,16.42-2.72,25.23-15.63a73,73,0,0,0,8.75-24.57M407,66.8q16,1.45,12.32,20.46-5.37,27.09-21.59,29.67-20,1.06-16.09-23.57Q387.23,66.47,407,66.8M497.3,63Q489.1,51.7,469,56.67T441.14,85.14q-2.38,7.69-13.9,63.45h12.45l6.55-27.35q8.94,8.34,23.31,5.76,16.43-2.72,25.23-15.63a72.76,72.76,0,0,0,8.74-24.57Q505.46,74.16,497.3,63m-44.44,30.4q5.56-26.89,25.37-26.56,16,1.45,12.32,20.46-5.37,27.09-21.59,29.67-20,1.06-16.1-23.57m112.45,4.5a93,93,0,0,0,2.85-18.41q.93-21-18.21-22.58t-30.2,7.94c-.71.62-1.37,1.26-2,1.92a31.88,31.88,0,0,0-6,9.21,50.09,50.09,0,0,0-3.12,9.47q-2.25,7.22-2.64,19.4t7.61,18.94q5.56,4.63,15.56,4.64Q552.46,128.32,555,111H542.93q-2.19,8.14-14,6.88T518.23,97.86h47.08m-45.1-10.6q4.57-19.4,21.86-19.66,16.35,1.32,13.7,19.66H520.21M617.76,67.6,618.88,57q-13-2-22.91,5.1L597,57H584.18l-14.57,71.26h12.32l7.55-35.63q6.75-23.64,28.28-25Z" transform="translate(-10 -10)"/></svg>